<?xml version="1.0" encoding="utf-8"?>
<!-- Generator: Adobe Illustrator 16.0.0, SVG Export Plug-In . SVG Version: 6.00 Build 0)  -->
<!DOCTYPE svg PUBLIC "-//W3C//DTD SVG 1.1//EN" "http://www.w3.org/Graphics/SVG/1.1/DTD/svg11.dtd">
<svg version="1.1" id="Layer_4" xmlns="http://www.w3.org/2000/svg" xmlns:xlink="http://www.w3.org/1999/xlink" x="0px" y="0px"
	 width="256px" height="128px" viewBox="0 0 256 128" enable-background="new 0 0 256 128" xml:space="preserve">
<path fill="#A8A8A8" d="M231.025,98.2c-5.56-20.541-10.064-38.729-14.963-58.12c-7.312-28.925-13.97-33.624-39.916-34.896
	c-6-0.294-13.832-0.33-18.822,7.79c-2.209,3.594-5.948,3.183-9.457,3.176h-39.758c-3.509,0.007-7.25,0.582-9.458-3.012
	C93.663,5.017,85.83,5.054,79.83,5.348c-25.949,1.272-32.57,5.98-39.914,34.896c-3.694,14.542-11.135,43.613-14.965,58.12
	c-2.437,9.229-0.269,15.118,9.271,22.03c6.695,4.853,17.151,4.488,23.584-1.629c6.829-6.496,11.062-14.354,17.471-22.205
	c3.037-3.719,5.919-5.817,12.794-3.551c13.51,4.457,26.305,4.959,37.713,5.055c14.014,0.308,28.612-0.762,42.12-5.219
	c6.875-2.268,9.758-0.168,12.795,3.553c6.408,7.85,10.641,15.707,17.471,22.203c6.434,6.117,16.889,6.48,23.584,1.629
	C231.295,113.318,233.52,107.415,231.025,98.2z"/>
<path fill="#FFFFFF" d="M102.91,45.682H92.483V35.255c0-3.07-2.489-5.561-5.56-5.561h-4.324c-3.071,0-5.561,2.49-5.561,5.561v10.427
	H66.612c-3.07,0-5.561,2.489-5.561,5.561v4.324c0,3.071,2.49,5.561,5.561,5.561h10.427v10.427c0,3.07,2.489,5.561,5.561,5.561h4.324
	c3.071,0,5.56-2.489,5.56-5.561V61.127h10.426c3.071,0,5.56-2.489,5.56-5.561v-4.324C108.47,48.171,105.981,45.682,102.91,45.682z"
	/>
<g>
	<circle fill="#FFFFFF" cx="168.119" cy="39.879" r="10.445"/>
	<g>
		<circle fill="#FFFFFF" cx="152.913" cy="66.016" r="10.444"/>
		<circle fill="#FFFFFF" cx="183.326" cy="66.016" r="10.443"/>
	</g>
</g>
</svg>
